<svg viewBox="0 0 785.18 785.18" xmlns="http://www.w3.org/2000/svg" data-sanitized-data-name="Layer 2" data-name="Layer 2" id="Layer_2">
  <defs>
    <style>
      .cls-1 {
        fill: #fff;
      }

      .cls-2 {
        fill: #4c855a;
      }
    </style>
  </defs>
  <g id="Artwork">
    <circle r="392.59" cy="392.59" cx="392.59" class="cls-1"></circle>
    <g>
      <path d="M315.37,277.36c4.17-19.89,7.58-39.2,12.36-58.17,7.15-28.38,17.26-55.66,35.13-79.34,9.87-13.08,21.61-23.92,38.28-27.51,17.63-3.8,32.35,2.86,45.32,14.03,19.09,16.43,30.54,37.97,39.24,61.1,13.37,35.56,20.3,72.58,23.45,110.3,1.51,18.04,1.67,36.19,2.46,54.29,.05,1.08,.18,2.16,.24,2.78,11.84,1.39,23.36,2.27,34.7,4.18,16.13,2.71,31.26,8.58,45.54,16.57,6.81,3.81,9.76,8.72,8.93,14.73-.9,6.48-4.99,10.35-12.71,12.36-33.51,8.74-55.16,29.33-62.63,63.62-1.22,5.6-1.33,11.51-1.35,17.28-.13,30.47-.26,60.93,0,91.4,.19,21.58-4.99,41-20.25,57.02-1.07,1.12-1.45,3.33-1.4,5.01,.19,6.29-2.49,10.74-7.91,13.71-32.28,17.71-66.74,25.44-103.51,22.63-22.53-1.72-43.72-7.63-62.63-20.37-25.32-17.05-39.22-41.27-40.07-71.44-1.19-42.4-.64-84.84-.54-127.27,.04-18.96-.2-37.81-7.86-55.59-15.82-36.69-43.5-59.38-82.13-68.87-10.12-2.49-15.99-9.09-13.32-16.97,1.3-3.83,4.61-7.92,8.13-9.89,35.74-20.03,74.01-29.39,115.1-26.02,2.58,.21,5.16,.31,7.45,.44Zm135.4,362.39c-.86-.99-1.06-1.33-1.35-1.53-28.84-19.5-41.91-46.83-41.58-81.44,.42-42.79,.21-85.58,.01-128.37-.05-10.06-.49-20.21-1.9-30.16-3.99-28.09-15.14-52.65-37.75-70.88-17.1-13.79-37.08-20.46-58.69-22.67-25.03-2.55-49.4,.42-73.84,8.83,1.44,.96,2.3,1.61,3.23,2.13,50.87,28.51,77.17,71.29,76.57,130.23-.43,41.66-.16,83.34-.06,125,.09,37.59,19.38,62.56,55.86,71.7,9.16,2.3,18.75,3.43,28.2,3.94,17.22,.94,34.13-1.56,51.3-6.8Zm28.8-355.65c.12-.34,.38-.7,.33-1.03-.67-4.99-1.29-10-2.09-14.97-4.92-30.69-11.68-60.96-25.81-88.86-5.5-10.85-12.38-21.46-20.58-30.37-12.31-13.37-26.95-12.96-39.71,0-5.82,5.91-10.83,12.89-15.06,20.05-11.88,20.09-19.14,42.09-24.27,64.73-3.73,16.5-6.52,33.21-9.73,49.81,52.23,17.84,80.58,54.64,90.5,107.7,13.75-15.16,29.81-24.86,48.46-30.46,1.2-.36,2.39-3.09,2.39-4.72,.03-9.53-.25-19.06-.53-28.58-.14-4.97-.49-9.93-.73-14.71-14.88-2.48-19.63-5.81-19.82-13.44-.2-8.15,4.85-12.75,16.64-15.16Zm69.21,103.9c-.54-.21-1.51-.85-2.53-.94-12.41-1.15-24.89-3.56-37.24-3.05-40.99,1.7-70.35,29.46-72.41,70.42-1.86,37.1-1.64,74.37-.78,111.52,.54,23.37,12.85,40.79,33.6,52.06,4.05,2.2,6.89,1.77,10.42-1.11,12.67-10.35,16.97-24.07,16.97-39.74,0-33.08-.19-66.17,.1-99.25,.24-26.98,10.11-50.35,28.76-69.72,7.06-7.33,15.35-13.47,23.12-20.19Z" class="cls-2"></path>
      <path d="M392.84,222c-10.69,.03-15.19-2.48-17.36-9.66-2.58-8.53,2.33-16.61,11.12-17.76,3.85-.5,7.84-.45,11.73-.16,8.02,.59,13.18,6.29,13.03,13.98-.15,7.78-5.35,13.04-13.48,13.59-1.67,.11-3.36,.02-5.04,.02Z" class="cls-2"></path>
      <path d="M409.54,305.21c-10.53,0-14.89-2.29-17.2-9.05-3.03-8.88,2.19-17.36,11.48-18.29,3.69-.37,7.46-.36,11.17-.09,8.16,.6,13.12,6.03,12.99,13.86-.13,8.03-5.51,13.26-13.96,13.55-1.49,.05-2.98,0-4.47,.01Z" class="cls-2"></path>
      <path d="M437.63,242.41c2.05,0,4.12-.16,6.15,.03,7.04,.67,11.68,5.89,11.84,13.17,.16,7.46-3.98,12.95-10.99,13.83-4.04,.51-8.2,.56-12.26,.26-8.52-.62-13.26-6.04-12.97-14.33,.27-7.85,5.47-12.78,13.76-13.03,1.49-.04,2.98,0,4.47,0,0,.02,0,.05,0,.07Z" class="cls-2"></path>
    </g>
  </g>
</svg>