<svg viewBox="0 0 785.18 785.18" xmlns="http://www.w3.org/2000/svg" data-sanitized-data-name="Layer 2" data-name="Layer 2" id="Layer_2">
  <defs>
    <style>
      .cls-1 {
        fill: #fff;
      }

      .cls-2 {
        fill: #4c855a;
      }
    </style>
  </defs>
  <g id="Artwork">
    <circle r="392.59" cy="392.59" cx="392.59" class="cls-1"></circle>
    <g>
      <path d="M400.95,113.64c7.52,2.48,15.34,4.31,22.45,7.66,5.69,2.69,10.43,7.35,15.76,10.88,1.47,.98,3.7,1.73,5.34,1.4,36.76-7.43,68.84,11.04,80.65,46.42,.58,1.73,2.57,3.66,4.31,4.24,34.96,11.54,53.82,44.14,46.43,80.23-.39,1.89,.43,4.73,1.74,6.17,24.21,26.67,24.19,65.5-.05,92.29-1.3,1.44-2.07,4.28-1.68,6.19,7.39,35.99-11.45,68.49-46.51,80.18-1.74,.58-3.69,2.55-4.26,4.29-11.65,35.04-44.15,53.86-80.21,46.47-1.9-.39-4.74,.4-6.17,1.71-26.71,24.23-65.4,24.23-92.28,0-1.44-1.3-4.28-2.09-6.18-1.7-36.05,7.4-68.57-11.43-80.21-46.48-.58-1.74-2.53-3.71-4.26-4.29-35.05-11.67-53.91-44.2-46.51-80.19,.39-1.9-.37-4.75-1.67-6.19-24.26-26.8-24.28-65.42-.05-92.27,1.3-1.45,2.11-4.28,1.73-6.17-7.39-36.1,11.47-68.7,46.43-80.23,1.75-.58,3.73-2.5,4.31-4.24,11.66-35.07,44.15-53.95,80.15-46.52,1.71,.35,4.29,.11,5.44-.96,10.63-9.85,22.93-16.05,37.29-18.16,.47-.07,.89-.47,1.34-.72,5.56,0,11.11,0,16.67,0Zm50.04,306.13c5.38,0,10.77,.21,16.13-.05,6.81-.33,11.97-3.58,14.54-10.04,10.8-27.11,13.69-54.75,4.48-82.88-9.27-28.29-29.27-47.66-54.33-61.91-14.1-8.02-29.16-14.46-44.1-20.89-18.38-7.92-35.51-17.24-48.07-33.5-9-11.65-22.16-10.05-28.53,3.29-9.58,20.08-14.95,41.28-17.07,63.42-5.04,52.42,22,101.11,69.2,124.22,27.69,13.56,57.27,18.27,87.76,18.34Z" class="cls-2"></path>
      <path d="M435.64,541.57c4.68-2.86,8.9-5.57,13.27-8.02,1.25-.7,2.94-1,4.4-.91,27.89,1.7,52.28-6.7,73.23-25.17,.36-.32,.86-.49,1.58-.89,.59,.88,1.17,1.69,1.68,2.54,15.5,25.83,38.32,38.88,68.44,38.82,7.66-.02,13.69,2.29,16.95,9.52,2.69,5.96,1.3,11.49-2.55,16.58-5.85,7.73-11.63,15.51-17.57,23.44,5.8,7.73,11.34,15.28,17.04,22.69,4.38,5.7,6.07,11.7,2.54,18.37-3.39,6.41-9.04,8.6-16.04,8.44-74.4-1.66-128.42-35.5-161.63-102.25-.46-.92-.81-1.89-1.36-3.16Z" class="cls-2"></path>
      <path d="M349.6,541.4c-5.5,13.5-12.75,25.86-21.68,37.13-36.29,45.82-83.88,68.31-142.22,68.44-6.86,.01-12.16-2.53-15.32-8.75-3.18-6.28-1.82-12.06,2.31-17.47,5.15-6.76,10.13-13.65,15.35-20.34,1.67-2.14,1.73-3.64,.04-5.83-5.62-7.26-11.11-14.64-16.49-22.09-3.68-5.1-3.96-10.63-1-16.18,2.85-5.34,7.44-8.02,13.48-8.3,36.85-1.71,52.74-10.67,72.79-40.96,7.45,4.89,14.63,10.27,22.41,14.57,14.87,8.22,31.06,11.82,48.01,11.12,5.11-.21,9.42,.35,13.52,3.53,2.56,1.99,5.63,3.32,8.8,5.13Z" class="cls-2"></path>
      <path d="M330.91,246.41c23.63,20.98,52.73,27.73,78.33,41.31,12.64,6.71,24.27,14.85,33.8,25.64,14.16,16.04,20.87,41.38,14.3,61.29-.87-1.7-1.38-3.75-2.66-5.05-16.6-16.76-33.31-33.41-49.98-50.1-4.88-4.89-10.65-6.45-17.14-4.23-5.96,2.04-9.27,6.58-10.08,12.75-.74,5.57,1.55,10.07,5.47,13.96,13.65,13.57,27.25,27.21,40.86,40.83,1.29,1.29,2.51,2.65,4.42,4.68-23.35-2.91-44.85-8.2-63.44-21.26-30.65-21.53-42.59-51.85-39.23-88.51,.92-10.03,3.37-19.92,5.37-31.31Z" class="cls-2"></path>
    </g>
  </g>
</svg>