<svg viewBox="0 0 785.18 785.18" xmlns="http://www.w3.org/2000/svg" data-sanitized-data-name="Layer 2" data-name="Layer 2" id="Layer_2">
  <defs>
    <style>
      .cls-1 {
        fill: #fff;
      }

      .cls-2 {
        fill: #4c855a;
      }
    </style>
  </defs>
  <g id="Artwork">
    <circle r="392.59" cy="392.59" cx="392.59" class="cls-1"></circle>
    <path d="M347.63,748.95C154.78,723.3,16.58,549.34,36.06,356.79,52.19,197.4,165.54,72.14,323.75,38.85c33.71-7.09,105.84-7.1,139.48,0,137.7,28.97,240.96,126.79,279.06,264.37,9.85,35.58,11.72,124.16,3.4,161.56-25.21,113.39-96.63,203.87-199.01,252.13-60.44,28.49-135.29,40.54-199.05,32.06v-.02Zm118.53-74.69c53.92-14.55,102.09-43.8,140.21-85.16,30.17-32.73,47.48-61.05,61.45-100.53,29.97-84.7,19.94-173.78-28.54-253.49-6.14-10.1-12.57-17.85-14.29-17.22-1.72,.6-12.57,10.17-24.12,21.23-11.55,11.05-22.16,20.1-23.59,20.1-5.59,0-63.13-36.52-63.13-40.06,0-2.09,12.49-16.38,27.75-31.78l27.75-28.01-9.57-7.43c-15.47-12.02-68.81-36.71-95.7-44.3-38.09-10.76-110.63-9.32-151.66,2.99-79.73,23.95-151.28,86.16-184.79,160.65-33.46,74.38-34.06,162.98-1.6,236.74,10.77,24.48,31.24,57.43,35.67,57.43,1.68,0,13.43-10.72,26.1-23.84,21.49-22.23,23.51-23.43,30.04-17.83,3.85,3.29,18.2,12.59,31.88,20.65,13.68,8.05,25.65,15.27,26.59,16.03,.94,.78-11.98,15.19-28.71,32.06l-30.42,30.67,9.57,7.38c26.2,20.21,79.91,42.24,121.46,49.83,25.42,4.67,90.29,1.26,117.65-6.11v.02Zm-161.49-144.99c-36.26-21-67.25-40.85-68.85-44.09-2.94-5.92-8.13-164.78-5.38-164.76,6.73,0,132.06,76.31,136.49,83.07,4.73,7.22,5.57,22.53,4.71,86.37l-1.03,77.6-65.93-38.2h0Zm109.95-40.34c0-70.26,.79-80.54,6.7-87.53,5.65-6.67,116.59-73.27,131.84-79.14,4.06-1.56,4.64,13.23,3.09,78.43-1.9,79.57-2.01,80.45-11.48,89.56-5.26,5.09-36.7,24.74-69.86,43.75l-60.29,34.55v-79.61h0Zm-34.45-130.61c-10.43-4.25-130.15-72.58-130.15-74.29,0-.6,29.26-17.77,65.01-38.22,48.74-27.86,68.42-37.17,78.64-37.17s28.52,8.57,71.84,33.48c32.02,18.41,61.26,35.56,64.98,38.11,5.9,4.07-1.46,9.34-57.42,41.31-68.49,39.13-77.92,42.86-92.9,36.77Z" class="cls-2"></path>
  </g>
</svg>