<svg viewBox="0 0 785.18 785.18" xmlns="http://www.w3.org/2000/svg" data-sanitized-data-name="Layer 2" data-name="Layer 2" id="Layer_2">
  <defs>
    <style>
      .cls-1 {
        fill: #fff;
      }

      .cls-2 {
        fill: #4c855a;
      }
    </style>
  </defs>
  <g id="Artwork">
    <circle r="392.59" cy="392.59" cx="392.59" class="cls-1"></circle>
    <g>
      <path d="M689.63,392.05c-.45,162.29-128.72,295.09-293.81,297.55-163.6,2.44-298.46-130.08-300.26-294.36-1.8-163.67,130.54-298.13,294.96-299.69,163.65-1.55,297.17,130.8,299.1,296.5Zm-576.65,.54c.07,154.08,125.42,279.75,278.96,279.69,154.88-.06,280.2-125.31,280.28-280.12,.08-153.65-125.59-279.22-279.44-279.21-154.46,.01-279.87,125.35-279.8,279.64Z" class="cls-2"></path>
      <path d="M464.73,356.63c-.63,10.67-.53,20.47-1.9,30.07-3.27,22.93-14.88,41.13-34.05,53.96-10.2,6.82-3.98,15.5-3.93,23.36,.04,7.43,7,5.57,11.25,6.11,15.57,1.97,31.27,3.02,46.83,5.04,23.03,3,38.4,17.82,42.65,40.49,1.7,9.04,3.08,18.14,4.71,27.2,1.07,5.96-.72,10.64-6.84,11.79-6.31,1.19-9.35-2.97-10.38-8.76-1.56-8.79-2.92-17.62-4.62-26.39-3.4-17.5-13.27-26.25-30.99-27.73-3.2-.27-6.4-.53-10.97-.9,0,6.31,.01,12.13,0,17.96-.03,11.92-.1,23.84-.12,35.76,0,5.66-2.43,9.89-8.29,10-6.27,.11-8.87-4.08-8.83-10.22,.1-15.44,.06-30.89,.07-46.33,0-2.92,0-5.84,0-7.68-11.71-2.85-23.09-3.86-32.78-8.44-11.37-5.38-8.77-18.6-10.53-28.91-9.19,.65-17.69,1.26-27.09,1.93-1.09,10.16,.13,22.92-11.49,27.92-9.42,4.05-20.27,4.75-31.47,7.14,0,14.91,0,30.56,0,46.21,0,2.98-.01,5.96-.01,8.94,0,5.87-3,9.53-8.76,9.45-5.36-.08-8.2-3.74-8.25-9.17-.1-11.92-.11-23.84-.15-35.76-.02-5.91,0-11.83,0-17.62-23.14-3.32-38.14,7.09-42.37,28.93-1.6,8.23-2.81,16.54-4.26,24.8-1.02,5.79-4.07,9.94-10.38,8.76-6.14-1.14-7.95-5.81-6.83-11.77,1.99-10.64,3.44-21.4,5.91-31.92,4.44-18.89,19.74-32.86,39-35.43,17.44-2.33,34.97-3.96,52.48-5.7,4.82-.48,8.72-1.53,8.41-7.38-.31-5.75,4.47-11.99-4.35-16.6-29.89-15.62-44.17-41.06-44.32-74.64-.07-15.79-.26-15.32-15.28-19.67-12.16-3.53-24.15-7.88-35.82-12.82-5.85-2.48-11.31-6.51-16.06-10.82-13.55-12.28-13.58-27.72-.23-40.26,12.62-11.86,28.41-18.02,44.85-21.56,11.22-2.41,17.77-7.7,21.96-18.22,4.39-11.02,10.3-21.45,15.77-32.02,8.66-16.72,24.4-24.29,42.1-18.06,15.86,5.58,30.49,5.69,46.38,.04,17.67-6.29,33.54,1.26,42.17,17.9,6.35,12.24,12.75,24.49,18.38,37.07,3.04,6.79,7.3,9.9,14.55,11.97,12.92,3.68,26,7.99,37.72,14.39,29.43,16.07,29.23,40.56,.21,57.37-17.58,10.19-37.06,14.85-56.75,18.74-2.37,.47-4.73,.96-7.27,1.47Zm-18.49-50.49c-39.16-7.2-77.75-7.3-116.91,.19,0,22.12-.1,43.5,.07,64.88,.04,5.39,.42,10.87,1.48,16.14,6.13,30.43,33.02,50.77,59.08,49.92,28.37-.92,54.53-26.71,56.01-55.13,1.3-24.84,.27-49.8,.27-76Zm17.87,32.87c20.32-3.85,39.62-7.98,56.91-18.18,15.81-9.33,15.87-17.96-.5-26.6-9.72-5.13-20.23-9.33-30.87-12.03-58.96-14.99-118.4-15.15-177.97-3.96-17.85,3.35-35.47,7.96-50.85,18.22-11.32,7.55-11.45,14.26-.36,21.79,15.23,10.35,32.64,14.94,51.57,18.66,0-9.19,0-17.52,0-25.85,0-16.28,1.9-20.61,17.89-22.3,26.83-2.83,53.9-4.13,80.88-4.35,13.61-.11,27.42,2.78,40.83,5.75,10.73,2.37,12.44,5.94,12.46,16.76,.02,10.51,0,21.02,0,32.08Zm-4.36-80.97c-6.52-12.98-12.04-24.68-18.21-36.02-4.15-7.63-11.2-10.19-20.16-8.15-4.47,1.02-8.89,2.35-13.2,3.9-10.35,3.73-20.6,3.77-30.96,.08-4.32-1.54-8.73-2.89-13.19-3.94-7.38-1.73-14.81-.85-18.81,5.96-7.02,11.96-12.9,24.58-19.98,38.33,45.45-6.56,89.1-6.39,134.51-.16Z" class="cls-2"></path>
      <path d="M464.11,339c0-11.06,.02-21.57,0-32.08-.02-10.82-1.73-14.39-12.46-16.76-13.4-2.97-27.22-5.86-40.83-5.75-26.98,.22-54.06,1.52-80.88,4.35-15.99,1.69-17.89,6.01-17.89,22.3,0,8.33,0,16.66,0,25.85-18.93-3.71-36.33-8.31-51.57-18.66-11.09-7.53-10.96-14.24,.36-21.79,15.38-10.26,33-14.87,50.85-18.22,59.57-11.19,119.01-11.03,177.97,3.96,10.64,2.7,21.15,6.9,30.87,12.03,16.37,8.64,16.31,17.26,.5,26.6-17.29,10.21-36.6,14.33-56.91,18.18Z" class="cls-2"></path>
    </g>
  </g>
</svg>