<svg viewBox="0 0 785.18 785.18" xmlns="http://www.w3.org/2000/svg" data-sanitized-data-name="Layer 2" data-name="Layer 2" id="Layer_2">
  <defs>
    <style>
      .cls-1 {
        fill: #fff;
      }

      .cls-2 {
        fill: #4c855a;
      }
    </style>
  </defs>
  <g id="Artwork">
    <circle r="392.59" cy="392.59" cx="392.59" class="cls-1"></circle>
    <g>
      <path d="M444.71,275.54c15.39,15.71,28.38,32.94,38.65,51,23.85-13.89,51.97-23.25,83.3-25.45-42.26,32.24-9.81,167.96-72.01,208.71l-1.13,1.8c134.96,2.38,102.84-215.28,158.86-263.85-84.65-37.87-159.47-17.04-207.67,27.78Z" class="cls-2"></path>
      <path d="M344.54,384.04c47.54,49.27,67.41,270.5,67.41,270.5l38.66-39.76s-28.3-192.72-106.07-230.74Z" class="cls-2"></path>
      <path d="M520.37,336.28c-15.26,7.45-27.3,24.33-36.7,43.41-33.94-111.18-169.99-210.26-350.87-126.15,116.78,18.8,37.41,300.6,230.03,304.88-66-31.94-28.96-142.73-76.21-215.01,130.29-20.64,185.36,116.41,167.09,187.94,30.32-31.3,41.65-72.93,37.37-115.49,6.64-32.29,16.29-66.12,29.3-79.58Z" class="cls-2"></path>
    </g>
  </g>
</svg>