<svg viewBox="0 0 785.18 785.18" xmlns="http://www.w3.org/2000/svg" data-sanitized-data-name="Layer 2" data-name="Layer 2" id="Layer_2">
  <defs>
    <style>
      .cls-1 {
        fill: #fff;
      }

      .cls-2 {
        fill: #4c855a;
      }
    </style>
  </defs>
  <g id="Artwork">
    <circle r="392.59" cy="392.59" cx="392.59" class="cls-1"></circle>
    <g>
      <path d="M410.65,679.6h-35.87c-1.62-.33-3.23-.73-4.87-.98-13.64-2.03-27.48-3.19-40.91-6.18-159.39-35.41-257.61-201.02-212.54-357.97,42.84-149.18,192.96-236.75,344.33-200.88,109.53,25.96,195.96,118.36,214.55,229.5,1.75,10.46,2.91,21.03,4.35,31.54v35.88c-.32,1.44-.72,2.88-.94,4.33-1.95,13.28-3.19,26.71-5.9,39.83-23.01,111.29-118.14,202.33-230.14,220.5-10.65,1.73-21.37,2.96-32.06,4.42Zm148.04-478.05c-96.22-86.16-256.44-86.9-354.1,21.47-96.14,106.68-76.74,256.62-1.92,335.97,13.83-13.88,27.55-27.85,41.52-41.56,5.39-5.29,10.24-10.55,11.9-18.34,.79-3.72,2.99-7.23,4.94-10.6,25.74-44.6,51.58-89.16,77.29-133.78,1.04-1.81,1.58-4.18,1.58-6.29,.09-42.03,.05-84.06,.11-126.09,0-2.8-.44-4.59-3.33-6.16-7.1-3.87-10.02-11.23-8.11-18.49,2.05-7.77,8.06-12.65,16.35-12.67,31.94-.09,63.88-.09,95.81,0,8.01,.02,13.96,4.83,16.05,12.31,2.04,7.3-.78,14.84-7.69,18.66-2.96,1.64-3.67,3.46-3.66,6.55,.1,29.33,.05,58.66,.07,87.98,0,1.37,.25,2.74,.36,3.86,37.62-37.62,75.09-75.08,112.83-112.82Zm-108.19,158.64c.52,.93,1.4,2.55,2.33,4.15,23.97,41.54,48.22,82.92,71.84,124.65,25.22,44.55-5.53,97.48-56.6,97.71-50.24,.22-100.49,.23-150.72-.14-7.86-.06-16.02-1.63-23.5-4.12-15.92-5.29-27.12-16.57-34.78-30.65-10.69,10.7-21.3,21.33-31.89,31.94,87.79,80.45,243.55,90.03,345.43-12.89,102.69-103.74,89.73-258.96,11.08-343.91-44.29,44.33-88.6,88.66-133.17,133.26Zm-58.35,192.92c24.47,0,48.94,.03,73.41-.03,3.34,0,6.79-.02,10.01-.76,20.68-4.77,30.6-27.27,20.07-46.29-10.94-19.75-22.55-39.13-33.7-58.76-1.65-2.9-3.65-3.65-6.74-3.65-41.65,.07-83.31,.09-124.96-.03-3.47,0-5.33,1.22-7.01,4.17-10.7,18.81-21.67,37.48-32.39,56.28-13.73,24.07,.74,48.98,28.47,49.06,24.28,.07,48.56,.01,72.85,.01Zm-47.18-143.56h95.25c-7.8-13.22-14.8-25.99-22.74-38.14-3.65-5.59-5.73-10.95-5.71-17.61,.14-42.76,.07-85.53,.07-128.29v-6.5h-38.27v7.06c0,42.95,.13,85.9-.18,128.85-.03,4.74-1.69,9.93-4.04,14.1-7.6,13.45-15.88,26.52-24.38,40.54Z" class="cls-2"></path>
      <path d="M451.02,510.37c-.09,9.22-7.73,16.73-16.9,16.63-9.03-.1-16.77-8.03-16.62-17.02,.16-9.18,7.84-16.65,17.02-16.53,9.34,.12,16.6,7.56,16.5,16.91Z" class="cls-2"></path>
      <path d="M357.14,502.63c-9.25,.03-16.85-7.45-16.88-16.61-.03-9,7.75-16.81,16.81-16.86,9.2-.05,16.67,7.45,16.7,16.77,.03,9.38-7.23,16.68-16.62,16.71Z" class="cls-2"></path>
    </g>
  </g>
</svg>